<svg width="64" height="64" viewBox="0 0 64 64" fill="none" xmlns="http://www.w3.org/2000/svg">
  <defs>
    <linearGradient id="bg_grad" x1="0" y1="0" x2="64" y2="64" gradientUnits="userSpaceOnUse">
      <stop offset="0%" stop-color="#5865F2"/>
      <stop offset="100%" stop-color="#7B68EE"/>
    </linearGradient>
  </defs>
  <rect width="64" height="64" rx="14" fill="url(#bg_grad)"/>
  <path d="M32 14C27.5817 14 24 17.5817 24 22V30C24 34.4183 27.5817 38 32 38C36.4183 38 40 34.4183 40 30V22C40 17.5817 36.4183 14 32 14Z" fill="white"/>
  <path d="M46 28V30C46 37.1797 40.1797 43 33 43.92V48H39V51H25V48H31V43.92C23.8203 43 18 37.1797 18 30V28H21V30C21 36.0751 25.9249 41 32 41C38.0751 41 43 36.0751 43 30V28H46Z" fill="white"/>
  <path d="M26 56C28 54.5 30 54.5 32 56C34 57.5 36 57.5 38 56" stroke="white" stroke-width="2" stroke-linecap="round" opacity="0.8"/>
  <path d="M24 59.5C27 58 30 58 32 59.5C34 61 37 61 40 59.5" stroke="white" stroke-width="1.5" stroke-linecap="round" opacity="0.6"/>
  <path d="M28 52.5C30 51.5 32 51.5 34 52.5" stroke="white" stroke-width="2" stroke-linecap="round" opacity="0.4"/>
</svg>
